<svg width="32" height="29" viewBox="0 0 32 29" fill="none" xmlns="http://www.w3.org/2000/svg">
<g filter="url(#filter0_d_2_12)">
<path d="M20 25V20.3333C20 19 20.1333 18.4667 19.3333 17.6667C23.0667 17.2667 26.6667 15.8 26.6667 9.66666C26.665 8.07328 26.0434 6.54307 24.9333 5.4C25.454 4.01595 25.406 2.48217 24.8 1.13333C24.8 1.13333 23.3333 0.733329 20.1333 2.86666C17.423 2.16078 14.577 2.16078 11.8667 2.86666C8.66667 0.733329 7.2 1.13333 7.2 1.13333C6.59398 2.48217 6.54604 4.01595 7.06667 5.4C5.9566 6.54307 5.33496 8.07328 5.33333 9.66666C5.33333 15.8 8.93333 17.2667 12.6667 17.6667C11.8667 18.4667 11.8667 19.2667 12 20.3333V25M12 22.3333C6.26667 24.2 6.26667 19 4 18.3333L12 22.3333Z" stroke="#13143C" stroke-width="2" stroke-linecap="round" stroke-linejoin="round" shape-rendering="crispEdges"/>
</g>
<defs>
<filter id="filter0_d_2_12" x="-1.00018" y="0.103577" width="32.6668" height="33.8964" filterUnits="userSpaceOnUse" color-interpolation-filters="sRGB">
<feFlood flood-opacity="0" result="BackgroundImageFix"/>
<feColorMatrix in="SourceAlpha" type="matrix" values="0 0 0 0 0 0 0 0 0 0 0 0 0 0 0 0 0 0 127 0" result="hardAlpha"/>
<feOffset dy="4"/>
<feGaussianBlur stdDeviation="2"/>
<feComposite in2="hardAlpha" operator="out"/>
<feColorMatrix type="matrix" values="0 0 0 0 0 0 0 0 0 0 0 0 0 0 0 0 0 0 0.25 0"/>
<feBlend mode="normal" in2="BackgroundImageFix" result="effect1_dropShadow_2_12"/>
<feBlend mode="normal" in="SourceGraphic" in2="effect1_dropShadow_2_12" result="shape"/>
</filter>
</defs>
</svg>
